<?xml version="1.0" standalone="no"?>
<!DOCTYPE svg PUBLIC "-//W3C//DTD SVG 20010904//EN"
 "http://www.w3.org/TR/2001/REC-SVG-20010904/DTD/svg10.dtd">
<svg version="1.0" xmlns="http://www.w3.org/2000/svg"
 width="512.000000pt" height="512.000000pt" viewBox="0 0 512.000000 512.000000"
 preserveAspectRatio="xMidYMid meet">
<metadata>
Created by potrace 1.11, written by Peter Selinger 2001-2013
</metadata>
<g transform="translate(0.000000,512.000000) scale(0.100000,-0.100000)"
fill="#000000" stroke="none">
<path d="M103 5099 c-22 -11 -54 -39 -70 -61 l-28 -41 -3 -358 c-3 -343 -2
-360 18 -398 32 -64 111 -111 184 -111 74 1 165 72 185 147 6 21 11 129 11
240 l0 201 223 4 c244 3 259 7 315 69 88 98 59 249 -60 310 -34 18 -63 19
-385 19 -331 0 -350 -1 -390 -21z"/>
<path d="M4238 5100 c-62 -33 -108 -112 -108 -184 1 -74 72 -165 147 -185 21
-6 129 -11 240 -11 l201 0 4 -222 c3 -245 7 -260 69 -316 98 -88 249 -59 310
60 18 34 19 63 19 384 0 329 -1 350 -20 390 -12 24 -39 54 -62 70 l-41 29
-361 2 c-342 2 -363 1 -398 -17z"/>
<path d="M2288 4714 c-140 -17 -345 -67 -483 -119 -587 -218 -1062 -693 -1280
-1280 -115 -310 -161 -692 -120 -1000 8 -60 15 -118 15 -127 0 -16 -12 -18
-122 -18 -144 0 -185 -10 -235 -53 -45 -39 -63 -82 -63 -145 0 -84 39 -147
117 -186 29 -15 243 -16 2440 -16 2372 0 2409 1 2451 20 74 34 112 94 112 178
0 60 -19 108 -57 144 -50 48 -90 58 -233 58 -117 0 -130 2 -130 18 0 9 7 67
15 127 41 308 -5 690 -120 1000 -218 587 -693 1062 -1280 1280 -314 117 -685
160 -1027 119z m537 -410 c455 -67 869 -317 1156 -699 125 -165 239 -407 293
-620 51 -203 64 -513 29 -710 l-18 -100 -409 -3 c-386 -2 -408 -1 -401 15 58
139 84 320 67 469 -13 109 -47 235 -84 308 l-24 47 -32 -50 c-159 -245 -526
-178 -592 107 -29 126 28 261 140 334 27 18 50 35 50 38 0 9 -138 60 -220 82
-93 25 -322 30 -415 9 -446 -99 -757 -454 -791 -903 -11 -134 19 -316 71 -441
7 -16 -15 -17 -401 -15 l-409 3 -18 100 c-24 134 -25 411 -2 550 82 503 357
930 775 1207 368 243 794 337 1235 272z"/>
<path d="M630 1573 c0 -10 71 -134 113 -198 308 -459 757 -783 1271 -915 200
-52 310 -65 546 -65 160 0 243 5 325 18 621 102 1140 437 1492 962 42 64 113
188 113 198 0 4 -105 7 -232 7 l-233 -1 -50 -72 c-66 -95 -270 -297 -372 -370
-243 -172 -467 -267 -753 -319 -161 -28 -419 -28 -580 0 -286 52 -510 147
-753 319 -102 73 -306 275 -372 370 l-50 72 -232 1 c-128 0 -233 -3 -233 -7z"/>
<path d="M120 973 c-46 -19 -78 -49 -101 -95 -18 -34 -19 -63 -19 -384 0 -329
1 -350 20 -390 12 -24 39 -54 62 -70 l41 -29 358 -3 c343 -3 360 -2 398 18 64
32 111 111 111 184 -1 74 -72 165 -147 185 -21 6 -129 11 -240 11 l-201 0 -4
223 c-3 190 -6 227 -21 255 -51 94 -163 136 -257 95z"/>
<path d="M4845 971 c-51 -23 -101 -79 -114 -128 -6 -21 -11 -129 -11 -240 l0
-201 -222 -4 c-245 -3 -260 -7 -316 -69 -88 -98 -59 -249 60 -310 34 -18 63
-19 384 -19 329 0 350 1 390 20 24 12 54 39 70 62 l29 41 3 358 c3 343 2 360
-18 398 -32 64 -111 111 -184 111 -17 0 -49 -9 -71 -19z"/>
</g>
</svg>
